<svg t="1713411556387" viewBox="0 0 1024 1024" version="1.1" xmlns="http://www.w3.org/2000/svg" p-id="7596" data-spm-anchor-id="a313x.search_index.0.i11.6f6a3a81uMeZy0" width="22" height="22"><path fill="#1989fa" d="M786.6368 128H230.1184A228.6848 228.6848 0 0 0 0 354.6112v455.68A112.3328 112.3328 0 0 0 113.024 921.6h798.208A112 112 0 0 0 1024 810.4704V361.728A235.904 235.904 0 0 0 786.6368 128z m-358.9888 247.6288H66.3296v-21.0176a162.7392 162.7392 0 0 1 163.84-161.28h556.4672a169.9328 169.9328 0 0 1 171.0336 168.4736v13.9008H596.096v65.3312h361.5744v369.4336a46.08 46.08 0 0 1-46.4384 45.7472H113.024a46.3616 46.3616 0 0 1-46.6688-46.08v-369.152h362.3424z"  p-id="7597" data-spm-anchor-id="a313x.search_index.0.i12.6f6a3a81uMeZy0" class=""></path><path fill="#1989fa" d="M468.8128 452.6336v-67.2512a42.3424 42.3424 0 0 1 42.5728-41.9328h1.3312a42.3424 42.3424 0 0 1 42.5728 41.9328v67.2512h-86.4768z m63.6672 47.5136v40.96h-41.9584v-40.96H532.48z m36.1984 88.5248v77.824a12.2624 12.2624 0 0 1-12.3136 12.1088h-88.7552a12.2624 12.2624 0 0 1-12.3136-12.1088v-77.824h113.3824z m-148.1216-116.5568a28.3136 28.3136 0 0 0 28.4672 28.16h5.2992v40.96h-18.7904a28.3136 28.3136 0 0 0-28.4672 28.16v97.28a60.1344 60.1344 0 0 0 60.544 59.648h88.7808a60.1344 60.1344 0 0 0 60.544-59.648v-97.28a28.3136 28.3136 0 0 0-28.4672-28.16h-19.7888v-40.96h6.272a28.3136 28.3136 0 0 0 28.4672-28.16l-0.4864-96.4608a90.4192 90.4192 0 0 0-90.2144-79.5904h-1.3312a90.4192 90.4192 0 0 0-90.2144 79.5904z"  p-id="7598" data-spm-anchor-id="a313x.search_index.0.i8.6f6a3a81uMeZy0" class=""></path></svg>
